<mxfile host="app.diagrams.net" modified="2022-07-03T02:07:38.337Z" agent="5.0 (Windows NT 10.0; Win64; x64) AppleWebKit/537.36 (KHTML, like Gecko) Chrome/103.0.0.0 Safari/537.36" etag="76Ei2uDLyDuDfjrJaneb" version="20.0.4" type="github">
  <diagram id="HSJ6vDpqChhuZFAxP3Rw" name="Page-1">
    <mxGraphModel dx="4431" dy="2277" grid="1" gridSize="10" guides="1" tooltips="1" connect="1" arrows="1" fold="1" page="0" pageScale="1" pageWidth="827" pageHeight="1169" math="0" shadow="0">
      <root>
        <mxCell id="0" />
        <mxCell id="1" parent="0" />
        <mxCell id="ryRQCTZ5as9w10T39_6p-2" value="Inicio" style="ellipse;whiteSpace=wrap;html=1;rounded=0;fillColor=default;strokeColor=#82b366;fontFamily=Helvetica;fontColor=#0A0A0A;labelBackgroundColor=none;labelBorderColor=none;gradientColor=#ffffff;strokeWidth=3;" parent="1" vertex="1">
          <mxGeometry x="-1760" y="-920" width="170" height="100" as="geometry" />
        </mxCell>
        <mxCell id="ryRQCTZ5as9w10T39_6p-4" value="Informe a data do evento:" style="shape=parallelogram;perimeter=parallelogramPerimeter;whiteSpace=wrap;html=1;fixedSize=1;rounded=0;fillColor=default;strokeColor=#82b366;fontFamily=Helvetica;fontColor=#0A0A0A;labelBackgroundColor=none;labelBorderColor=none;gradientColor=#ffffff;strokeWidth=3;" parent="1" vertex="1">
          <mxGeometry x="-1760" y="-760" width="170" height="100" as="geometry" />
        </mxCell>
        <mxCell id="ryRQCTZ5as9w10T39_6p-6" value="dataEvento" style="shape=document;whiteSpace=wrap;html=1;boundedLbl=1;rounded=0;fillColor=default;strokeColor=#82b366;fontFamily=Helvetica;fontColor=#0A0A0A;labelBackgroundColor=none;labelBorderColor=none;gradientColor=#ffffff;strokeWidth=3;" parent="1" vertex="1">
          <mxGeometry x="-1760" y="-600" width="170" height="100" as="geometry" />
        </mxCell>
        <mxCell id="ryRQCTZ5as9w10T39_6p-7" value="Se dataEvento&lt;br&gt;&amp;nbsp;for posterior&lt;br&gt;&amp;nbsp;à data atual:" style="rhombus;whiteSpace=wrap;html=1;rounded=0;fillColor=default;strokeColor=#82b366;fontFamily=Helvetica;fontColor=#0A0A0A;labelBackgroundColor=none;labelBorderColor=none;gradientColor=#ffffff;strokeWidth=3;" parent="1" vertex="1">
          <mxGeometry x="-1760" y="-440" width="170" height="100" as="geometry" />
        </mxCell>
        <mxCell id="ryRQCTZ5as9w10T39_6p-12" value="permitir o cadastro" style="shape=document;whiteSpace=wrap;html=1;boundedLbl=1;rounded=0;fillColor=default;strokeColor=#82b366;fontFamily=Helvetica;fontColor=#0A0A0A;labelBackgroundColor=none;labelBorderColor=none;gradientColor=#ffffff;strokeWidth=3;" parent="1" vertex="1">
          <mxGeometry x="-1280" y="-280" width="170" height="100" as="geometry" />
        </mxCell>
        <mxCell id="ryRQCTZ5as9w10T39_6p-13" value="permitir o evento" style="shape=document;whiteSpace=wrap;html=1;boundedLbl=1;rounded=0;fillColor=default;strokeColor=#82b366;fontFamily=Helvetica;fontColor=#0A0A0A;labelBackgroundColor=none;labelBorderColor=none;gradientColor=#ffffff;strokeWidth=3;" parent="1" vertex="1">
          <mxGeometry x="-1760" y="-280" width="170" height="100" as="geometry" />
        </mxCell>
        <mxCell id="ryRQCTZ5as9w10T39_6p-20" value="Informar idade:" style="shape=parallelogram;perimeter=parallelogramPerimeter;whiteSpace=wrap;html=1;fixedSize=1;rounded=0;fillColor=default;strokeColor=#82b366;fontFamily=Helvetica;fontColor=#0A0A0A;labelBackgroundColor=none;labelBorderColor=none;gradientColor=#ffffff;strokeWidth=3;" parent="1" vertex="1">
          <mxGeometry x="-1760" y="-120" width="170" height="100" as="geometry" />
        </mxCell>
        <mxCell id="ryRQCTZ5as9w10T39_6p-21" value="idadeParticipante" style="shape=document;whiteSpace=wrap;html=1;boundedLbl=1;rounded=0;fillColor=default;strokeColor=#82b366;fontFamily=Helvetica;fontColor=#0A0A0A;labelBackgroundColor=none;labelBorderColor=none;gradientColor=#ffffff;strokeWidth=3;" parent="1" vertex="1">
          <mxGeometry x="-1520" y="-120" width="170" height="100" as="geometry" />
        </mxCell>
        <mxCell id="ryRQCTZ5as9w10T39_6p-22" value="Se idadeParticipante&lt;br&gt;&amp;nbsp;for maior que 18:" style="rhombus;whiteSpace=wrap;html=1;rounded=0;spacing=2;fillColor=default;strokeColor=#82b366;fontFamily=Helvetica;fontColor=#0A0A0A;labelBackgroundColor=none;labelBorderColor=none;gradientColor=#ffffff;strokeWidth=3;" parent="1" vertex="1">
          <mxGeometry x="-1280" y="-120" width="170" height="100" as="geometry" />
        </mxCell>
        <mxCell id="ryRQCTZ5as9w10T39_6p-23" value="o cadastro não é permitido pela idade" style="shape=document;whiteSpace=wrap;html=1;boundedLbl=1;rounded=0;fillColor=default;strokeColor=#82b366;fontFamily=Helvetica;fontColor=#0A0A0A;labelBackgroundColor=none;labelBorderColor=none;gradientColor=#ffffff;strokeWidth=3;" parent="1" vertex="1">
          <mxGeometry x="-1280" y="40" width="170" height="100" as="geometry" />
        </mxCell>
        <mxCell id="ryRQCTZ5as9w10T39_6p-24" value="cadastro não será permitido por data inválida" style="shape=document;whiteSpace=wrap;html=1;boundedLbl=1;rounded=0;fillColor=default;strokeColor=#82b366;fontFamily=Helvetica;fontColor=#0A0A0A;labelBackgroundColor=none;labelBorderColor=none;gradientColor=#ffffff;strokeWidth=3;" parent="1" vertex="1">
          <mxGeometry x="-1970" y="-440" width="170" height="100" as="geometry" />
        </mxCell>
        <mxCell id="ryRQCTZ5as9w10T39_6p-25" value="Listar participantes e palestrantes por evento:" style="shape=parallelogram;perimeter=parallelogramPerimeter;whiteSpace=wrap;html=1;fixedSize=1;rounded=0;fillColor=default;strokeColor=#82b366;fontFamily=Helvetica;fontColor=#0A0A0A;labelBackgroundColor=none;labelBorderColor=none;gradientColor=#ffffff;strokeWidth=3;" parent="1" vertex="1">
          <mxGeometry x="-1280" y="-440" width="170" height="100" as="geometry" />
        </mxCell>
        <mxCell id="ryRQCTZ5as9w10T39_6p-26" value="qtdParticipantes" style="shape=document;whiteSpace=wrap;html=1;boundedLbl=1;rounded=0;fillColor=default;strokeColor=#82b366;fontFamily=Helvetica;fontColor=#0A0A0A;labelBackgroundColor=none;labelBorderColor=none;gradientColor=#ffffff;strokeWidth=3;" parent="1" vertex="1">
          <mxGeometry x="-1280" y="-600" width="170" height="100" as="geometry" />
        </mxCell>
        <mxCell id="ryRQCTZ5as9w10T39_6p-27" value="Enquanto a&lt;br&gt;&amp;nbsp;qtdParticipantes&lt;br&gt;&amp;nbsp;for inferior a 100:" style="rhombus;whiteSpace=wrap;html=1;rounded=0;fillColor=default;strokeColor=#82b366;fontFamily=Helvetica;fontColor=#0A0A0A;labelBackgroundColor=none;labelBorderColor=none;gradientColor=#ffffff;strokeWidth=3;" parent="1" vertex="1">
          <mxGeometry x="-1280" y="-760" width="170" height="100" as="geometry" />
        </mxCell>
        <mxCell id="ryRQCTZ5as9w10T39_6p-28" value="permitir cadastro" style="shape=document;whiteSpace=wrap;html=1;boundedLbl=1;rounded=0;fillColor=default;strokeColor=#82b366;fontFamily=Helvetica;fontColor=#0A0A0A;labelBackgroundColor=none;labelBorderColor=none;gradientColor=#ffffff;strokeWidth=3;" parent="1" vertex="1">
          <mxGeometry x="-1280" y="-920" width="170" height="100" as="geometry" />
        </mxCell>
        <mxCell id="ryRQCTZ5as9w10T39_6p-29" value="cadastro não será permitido por ter excedido o limite" style="shape=document;whiteSpace=wrap;html=1;boundedLbl=1;rounded=0;fillColor=default;strokeColor=#82b366;fontFamily=Helvetica;fontColor=#0A0A0A;labelBackgroundColor=none;labelBorderColor=none;gradientColor=#ffffff;strokeWidth=3;" parent="1" vertex="1">
          <mxGeometry x="-1040" y="-760" width="170" height="100" as="geometry" />
        </mxCell>
        <mxCell id="ryRQCTZ5as9w10T39_6p-30" value="Fim" style="ellipse;whiteSpace=wrap;html=1;rounded=0;fillColor=default;strokeColor=#82b366;fontFamily=Helvetica;fontColor=#0A0A0A;labelBackgroundColor=none;labelBorderColor=none;gradientColor=#ffffff;strokeWidth=3;" parent="1" vertex="1">
          <mxGeometry x="-1280" y="-1060" width="170" height="100" as="geometry" />
        </mxCell>
        <mxCell id="ryRQCTZ5as9w10T39_6p-31" value="Fim" style="ellipse;whiteSpace=wrap;html=1;rounded=0;fillColor=default;strokeColor=#82b366;fontFamily=Helvetica;fontColor=#0A0A0A;labelBackgroundColor=none;labelBorderColor=none;gradientColor=#ffffff;strokeWidth=3;" parent="1" vertex="1">
          <mxGeometry x="-800" y="-760" width="170" height="100" as="geometry" />
        </mxCell>
        <mxCell id="ryRQCTZ5as9w10T39_6p-32" value="Fim" style="ellipse;whiteSpace=wrap;html=1;rounded=0;fillColor=default;strokeColor=#82b366;fontFamily=Helvetica;fontColor=#0A0A0A;labelBackgroundColor=none;labelBorderColor=none;gradientColor=#ffffff;strokeWidth=3;" parent="1" vertex="1">
          <mxGeometry x="-2210" y="-440" width="170" height="100" as="geometry" />
        </mxCell>
        <mxCell id="ryRQCTZ5as9w10T39_6p-33" value="Fim" style="ellipse;whiteSpace=wrap;html=1;rounded=0;fillColor=default;strokeColor=#82b366;fontColor=#0A0A0A;labelBackgroundColor=none;labelBorderColor=none;gradientColor=#ffffff;strokeWidth=3;" parent="1" vertex="1">
          <mxGeometry x="-1280" y="200" width="170" height="100" as="geometry" />
        </mxCell>
        <mxCell id="ryRQCTZ5as9w10T39_6p-34" value="" style="shape=flexArrow;endArrow=classic;html=1;entryX=0.5;entryY=0;entryDx=0;entryDy=0;fillColor=#d5e8d4;strokeColor=#82b366;fontFamily=Helvetica;fontColor=#0A0A0A;labelBackgroundColor=none;labelBorderColor=none;strokeWidth=3;" parent="1" source="ryRQCTZ5as9w10T39_6p-2" target="ryRQCTZ5as9w10T39_6p-4" edge="1">
          <mxGeometry width="50" height="50" relative="1" as="geometry">
            <mxPoint x="-1675.5" y="-820" as="sourcePoint" />
            <mxPoint x="-1675.5" y="-780" as="targetPoint" />
          </mxGeometry>
        </mxCell>
        <mxCell id="ryRQCTZ5as9w10T39_6p-35" value="" style="shape=flexArrow;endArrow=classic;html=1;entryX=0.5;entryY=0;entryDx=0;entryDy=0;fillColor=#d5e8d4;strokeColor=#82b366;fontFamily=Helvetica;fontColor=#0A0A0A;labelBackgroundColor=none;labelBorderColor=none;strokeWidth=3;" parent="1" source="ryRQCTZ5as9w10T39_6p-4" target="ryRQCTZ5as9w10T39_6p-6" edge="1">
          <mxGeometry width="50" height="50" relative="1" as="geometry">
            <mxPoint x="-1675.5" y="-660" as="sourcePoint" />
            <mxPoint x="-1675.5" y="-620" as="targetPoint" />
          </mxGeometry>
        </mxCell>
        <mxCell id="ryRQCTZ5as9w10T39_6p-36" value="" style="shape=flexArrow;endArrow=classic;html=1;fillColor=#d5e8d4;strokeColor=#82b366;fontFamily=Helvetica;fontColor=#0A0A0A;labelBackgroundColor=none;labelBorderColor=none;strokeWidth=3;" parent="1" source="ryRQCTZ5as9w10T39_6p-6" target="ryRQCTZ5as9w10T39_6p-7" edge="1">
          <mxGeometry width="50" height="50" relative="1" as="geometry">
            <mxPoint x="-1675.5" y="-500" as="sourcePoint" />
            <mxPoint x="-1675.5" y="-460" as="targetPoint" />
          </mxGeometry>
        </mxCell>
        <mxCell id="ryRQCTZ5as9w10T39_6p-37" value="" style="shape=flexArrow;endArrow=classic;html=1;entryX=0.5;entryY=0;entryDx=0;entryDy=0;fillColor=#d5e8d4;strokeColor=#82b366;fontFamily=Helvetica;fontColor=#0A0A0A;labelBackgroundColor=none;labelBorderColor=none;strokeWidth=3;" parent="1" target="ryRQCTZ5as9w10T39_6p-13" edge="1">
          <mxGeometry width="50" height="50" relative="1" as="geometry">
            <mxPoint x="-1675.5" y="-340" as="sourcePoint" />
            <mxPoint x="-1675.5" y="-300" as="targetPoint" />
          </mxGeometry>
        </mxCell>
        <mxCell id="ryRQCTZ5as9w10T39_6p-38" value="" style="shape=flexArrow;endArrow=classic;html=1;entryX=1;entryY=0.5;entryDx=0;entryDy=0;fillColor=#d5e8d4;strokeColor=#82b366;fontFamily=Helvetica;fontColor=#0A0A0A;labelBackgroundColor=none;labelBorderColor=none;strokeWidth=3;" parent="1" source="ryRQCTZ5as9w10T39_6p-7" target="ryRQCTZ5as9w10T39_6p-24" edge="1">
          <mxGeometry width="50" height="50" relative="1" as="geometry">
            <mxPoint x="-1760" y="-390" as="sourcePoint" />
            <mxPoint x="-1761" y="-350" as="targetPoint" />
          </mxGeometry>
        </mxCell>
        <mxCell id="ryRQCTZ5as9w10T39_6p-40" value="" style="shape=flexArrow;endArrow=classic;html=1;fillColor=#d5e8d4;strokeColor=#82b366;fontFamily=Helvetica;fontColor=#0A0A0A;labelBackgroundColor=none;labelBorderColor=none;strokeWidth=3;" parent="1" source="ryRQCTZ5as9w10T39_6p-24" target="ryRQCTZ5as9w10T39_6p-32" edge="1">
          <mxGeometry width="50" height="50" relative="1" as="geometry">
            <mxPoint x="-1980" y="-400" as="sourcePoint" />
            <mxPoint x="-2020" y="-400" as="targetPoint" />
          </mxGeometry>
        </mxCell>
        <mxCell id="ryRQCTZ5as9w10T39_6p-41" value="" style="shape=flexArrow;endArrow=classic;html=1;fillColor=#d5e8d4;strokeColor=#82b366;fontFamily=Helvetica;fontColor=#0A0A0A;labelBackgroundColor=none;labelBorderColor=none;strokeWidth=3;" parent="1" source="ryRQCTZ5as9w10T39_6p-13" target="ryRQCTZ5as9w10T39_6p-20" edge="1">
          <mxGeometry width="50" height="50" relative="1" as="geometry">
            <mxPoint x="-1675.5" y="-190" as="sourcePoint" />
            <mxPoint x="-1675" y="-130" as="targetPoint" />
          </mxGeometry>
        </mxCell>
        <mxCell id="ryRQCTZ5as9w10T39_6p-42" value="" style="shape=flexArrow;endArrow=classic;html=1;fillColor=#d5e8d4;strokeColor=#82b366;fontFamily=Helvetica;fontColor=#0A0A0A;labelBackgroundColor=none;labelBorderColor=none;strokeWidth=3;" parent="1" source="ryRQCTZ5as9w10T39_6p-20" target="ryRQCTZ5as9w10T39_6p-21" edge="1">
          <mxGeometry width="50" height="50" relative="1" as="geometry">
            <mxPoint x="-1570" y="-80" as="sourcePoint" />
            <mxPoint x="-1570" y="-20" as="targetPoint" />
          </mxGeometry>
        </mxCell>
        <mxCell id="ryRQCTZ5as9w10T39_6p-43" value="" style="shape=flexArrow;endArrow=classic;html=1;fillColor=#d5e8d4;strokeColor=#82b366;fontFamily=Helvetica;fontColor=#0A0A0A;labelBackgroundColor=none;labelBorderColor=none;strokeWidth=3;" parent="1" source="ryRQCTZ5as9w10T39_6p-21" target="ryRQCTZ5as9w10T39_6p-22" edge="1">
          <mxGeometry width="50" height="50" relative="1" as="geometry">
            <mxPoint x="-1340" y="-20" as="sourcePoint" />
            <mxPoint x="-1260" y="-20" as="targetPoint" />
          </mxGeometry>
        </mxCell>
        <mxCell id="ryRQCTZ5as9w10T39_6p-44" value="" style="shape=flexArrow;endArrow=classic;html=1;fillColor=#d5e8d4;strokeColor=#82b366;fontFamily=Helvetica;fontColor=#0A0A0A;labelBackgroundColor=none;labelBorderColor=none;strokeWidth=3;" parent="1" source="ryRQCTZ5as9w10T39_6p-22" target="ryRQCTZ5as9w10T39_6p-23" edge="1">
          <mxGeometry width="50" height="50" relative="1" as="geometry">
            <mxPoint x="-1340" y="-60" as="sourcePoint" />
            <mxPoint x="-1270" y="-60" as="targetPoint" />
          </mxGeometry>
        </mxCell>
        <mxCell id="ryRQCTZ5as9w10T39_6p-46" value="" style="shape=flexArrow;endArrow=classic;html=1;fillColor=#d5e8d4;strokeColor=#82b366;fontFamily=Helvetica;fontColor=#0A0A0A;labelBackgroundColor=none;labelBorderColor=none;strokeWidth=3;" parent="1" source="ryRQCTZ5as9w10T39_6p-22" target="ryRQCTZ5as9w10T39_6p-12" edge="1">
          <mxGeometry width="50" height="50" relative="1" as="geometry">
            <mxPoint x="-1240" y="-160" as="sourcePoint" />
            <mxPoint x="-1170" y="-160" as="targetPoint" />
          </mxGeometry>
        </mxCell>
        <mxCell id="ryRQCTZ5as9w10T39_6p-47" value="" style="shape=flexArrow;endArrow=classic;html=1;fillColor=#d5e8d4;strokeColor=#82b366;fontFamily=Helvetica;fontColor=#0A0A0A;labelBackgroundColor=none;labelBorderColor=none;strokeWidth=3;" parent="1" source="ryRQCTZ5as9w10T39_6p-12" target="ryRQCTZ5as9w10T39_6p-25" edge="1">
          <mxGeometry width="50" height="50" relative="1" as="geometry">
            <mxPoint x="-1200" y="-280" as="sourcePoint" />
            <mxPoint x="-1200" y="-340" as="targetPoint" />
          </mxGeometry>
        </mxCell>
        <mxCell id="ryRQCTZ5as9w10T39_6p-48" value="" style="shape=flexArrow;endArrow=classic;html=1;fillColor=#d5e8d4;strokeColor=#82b366;fontFamily=Helvetica;fontColor=#0A0A0A;labelBackgroundColor=none;labelBorderColor=none;strokeWidth=3;" parent="1" source="ryRQCTZ5as9w10T39_6p-25" target="ryRQCTZ5as9w10T39_6p-26" edge="1">
          <mxGeometry width="50" height="50" relative="1" as="geometry">
            <mxPoint x="-1175" y="-100" as="sourcePoint" />
            <mxPoint x="-1175" y="-160" as="targetPoint" />
          </mxGeometry>
        </mxCell>
        <mxCell id="ryRQCTZ5as9w10T39_6p-49" value="" style="shape=flexArrow;endArrow=classic;html=1;fillColor=#d5e8d4;strokeColor=#82b366;fontFamily=Helvetica;fontColor=#0A0A0A;labelBackgroundColor=none;labelBorderColor=none;strokeWidth=3;" parent="1" source="ryRQCTZ5as9w10T39_6p-26" target="ryRQCTZ5as9w10T39_6p-27" edge="1">
          <mxGeometry width="50" height="50" relative="1" as="geometry">
            <mxPoint x="-1185" y="-430" as="sourcePoint" />
            <mxPoint x="-1185" y="-490" as="targetPoint" />
          </mxGeometry>
        </mxCell>
        <mxCell id="ryRQCTZ5as9w10T39_6p-50" value="" style="shape=flexArrow;endArrow=classic;html=1;fillColor=#d5e8d4;strokeColor=#82b366;fontFamily=Helvetica;fontColor=#0A0A0A;labelBackgroundColor=none;labelBorderColor=none;strokeWidth=3;" parent="1" source="ryRQCTZ5as9w10T39_6p-27" target="ryRQCTZ5as9w10T39_6p-29" edge="1">
          <mxGeometry width="50" height="50" relative="1" as="geometry">
            <mxPoint x="-1175" y="-420" as="sourcePoint" />
            <mxPoint x="-1175" y="-480" as="targetPoint" />
          </mxGeometry>
        </mxCell>
        <mxCell id="ryRQCTZ5as9w10T39_6p-51" value="" style="shape=flexArrow;endArrow=classic;html=1;fillColor=#d5e8d4;strokeColor=#82b366;fontFamily=Helvetica;fontColor=#0A0A0A;labelBackgroundColor=none;labelBorderColor=none;strokeWidth=3;" parent="1" source="ryRQCTZ5as9w10T39_6p-29" target="ryRQCTZ5as9w10T39_6p-31" edge="1">
          <mxGeometry width="50" height="50" relative="1" as="geometry">
            <mxPoint x="-1100" y="-700" as="sourcePoint" />
            <mxPoint x="-1030" y="-700" as="targetPoint" />
          </mxGeometry>
        </mxCell>
        <mxCell id="ryRQCTZ5as9w10T39_6p-52" value="" style="shape=flexArrow;endArrow=classic;html=1;fillColor=#d5e8d4;strokeColor=#82b366;fontFamily=Helvetica;fontColor=#0A0A0A;labelBackgroundColor=none;labelBorderColor=none;strokeWidth=3;" parent="1" source="ryRQCTZ5as9w10T39_6p-27" target="ryRQCTZ5as9w10T39_6p-28" edge="1">
          <mxGeometry width="50" height="50" relative="1" as="geometry">
            <mxPoint x="-1185" y="-590" as="sourcePoint" />
            <mxPoint x="-1185" y="-650" as="targetPoint" />
          </mxGeometry>
        </mxCell>
        <mxCell id="ryRQCTZ5as9w10T39_6p-53" value="" style="shape=flexArrow;endArrow=classic;html=1;fillColor=#d5e8d4;strokeColor=#82b366;fontFamily=Helvetica;fontColor=#0A0A0A;labelBackgroundColor=none;labelBorderColor=none;strokeWidth=3;" parent="1" source="ryRQCTZ5as9w10T39_6p-28" target="ryRQCTZ5as9w10T39_6p-30" edge="1">
          <mxGeometry width="50" height="50" relative="1" as="geometry">
            <mxPoint x="-1175" y="-580" as="sourcePoint" />
            <mxPoint x="-1175" y="-640" as="targetPoint" />
          </mxGeometry>
        </mxCell>
        <mxCell id="ryRQCTZ5as9w10T39_6p-54" value="" style="shape=flexArrow;endArrow=classic;html=1;fillColor=#d5e8d4;strokeColor=#82b366;fontFamily=Helvetica;fontColor=#0A0A0A;labelBackgroundColor=none;labelBorderColor=none;strokeWidth=3;" parent="1" source="ryRQCTZ5as9w10T39_6p-23" target="ryRQCTZ5as9w10T39_6p-33" edge="1">
          <mxGeometry width="50" height="50" relative="1" as="geometry">
            <mxPoint x="-1185" y="-10" as="sourcePoint" />
            <mxPoint x="-1185" y="50" as="targetPoint" />
          </mxGeometry>
        </mxCell>
        <mxCell id="SyRTV7ZNQS9phIxTbbTm-1" value="Não" style="text;html=1;strokeColor=none;fillColor=none;align=center;verticalAlign=middle;whiteSpace=wrap;rounded=0;" vertex="1" parent="1">
          <mxGeometry x="-1800" y="-440" width="60" height="30" as="geometry" />
        </mxCell>
        <mxCell id="SyRTV7ZNQS9phIxTbbTm-2" value="Sim" style="text;html=1;strokeColor=none;fillColor=none;align=center;verticalAlign=middle;whiteSpace=wrap;rounded=0;" vertex="1" parent="1">
          <mxGeometry x="-1670" y="-340" width="60" height="30" as="geometry" />
        </mxCell>
        <mxCell id="SyRTV7ZNQS9phIxTbbTm-3" value="Não" style="text;html=1;strokeColor=none;fillColor=none;align=center;verticalAlign=middle;whiteSpace=wrap;rounded=0;" vertex="1" parent="1">
          <mxGeometry x="-1190" y="-20" width="60" height="30" as="geometry" />
        </mxCell>
        <mxCell id="SyRTV7ZNQS9phIxTbbTm-4" value="Não" style="text;html=1;strokeColor=none;fillColor=none;align=center;verticalAlign=middle;whiteSpace=wrap;rounded=0;" vertex="1" parent="1">
          <mxGeometry x="-1110" y="-760" width="60" height="30" as="geometry" />
        </mxCell>
        <mxCell id="SyRTV7ZNQS9phIxTbbTm-5" value="Sim" style="text;html=1;strokeColor=none;fillColor=none;align=center;verticalAlign=middle;whiteSpace=wrap;rounded=0;" vertex="1" parent="1">
          <mxGeometry x="-1190" y="-790" width="60" height="30" as="geometry" />
        </mxCell>
        <mxCell id="SyRTV7ZNQS9phIxTbbTm-6" value="Sim" style="text;html=1;strokeColor=none;fillColor=none;align=center;verticalAlign=middle;whiteSpace=wrap;rounded=0;" vertex="1" parent="1">
          <mxGeometry x="-1190" y="-150" width="60" height="30" as="geometry" />
        </mxCell>
      </root>
    </mxGraphModel>
  </diagram>
</mxfile>
